<svg width="28" height="27" viewBox="0 0 28 27" fill="none" xmlns="http://www.w3.org/2000/svg">
<path d="M13.9993 2.8125C12.4599 2.8125 7.77518 2.8125 5.18518 5.09287C3.64285 6.5745 2.91602 8.71537 2.91602 11.8125V13.5C2.91602 16.5971 3.64285 18.738 5.20327 20.2365C5.98027 20.9199 7.0396 21.4661 8.3346 21.8436L8.74935 21.9639V24.9609C8.74935 25.3125 8.85493 25.3125 8.88993 25.3125C8.96168 25.3125 9.0766 25.2906 9.29477 25.1038C9.34727 25.0537 9.73227 24.6521 11.6048 22.6294L11.7938 22.4252L12.0767 22.4426C12.7038 22.4803 13.3507 22.5 13.9993 22.5C15.5388 22.5 20.2235 22.5 22.8135 20.2191C24.3553 18.7374 25.0827 16.5966 25.0827 13.5V11.8125C25.0827 8.71537 24.3559 6.5745 22.7954 5.076C20.2235 2.8125 15.5388 2.8125 13.9993 2.8125Z" fill="white"/>
<path d="M19.5134 16.2304C18.8654 15.7039 18.5661 15.5447 17.6713 15.0266C17.2985 14.8112 16.7304 14.625 16.4323 14.625C16.2287 14.625 15.9849 14.7752 15.8355 14.9192C15.4529 15.2882 15.3274 15.75 14.6566 15.75C14.0004 15.75 12.8541 15.1059 12.0316 14.2734C11.1683 13.4803 10.5004 12.375 10.5004 11.7422C10.5004 11.0953 10.9705 10.9659 11.3532 10.5964C11.5025 10.4529 11.667 10.2178 11.667 10.0215C11.667 9.73406 11.4739 9.19462 11.2505 8.83519C10.7133 7.97175 10.5488 7.68319 10.0022 7.05881C9.81728 6.84731 9.6067 6.75056 9.3862 6.75C9.01345 6.74944 8.52403 6.92775 8.1927 7.16569C7.69453 7.524 7.17362 8.01169 7.0342 8.61919C7.01553 8.70187 7.00445 8.78512 7.00095 8.86837C6.97412 9.50119 7.23195 10.1436 7.5102 10.6875C8.16528 11.9694 9.03212 13.2103 9.97537 14.3184C10.2769 14.6728 10.6054 15.0024 10.9454 15.3208C11.2756 15.6482 11.6174 15.9649 11.9849 16.2562C13.1341 17.1658 14.4209 18.0017 15.7504 18.6334C16.3092 18.8989 16.9672 19.143 17.617 19.125C17.7098 19.1222 17.8025 19.1121 17.8953 19.0924C18.5253 18.9585 19.031 18.4556 19.4026 17.9752C19.6494 17.6557 19.8343 17.1844 19.8337 16.8244C19.8331 16.6117 19.7328 16.4087 19.5134 16.2304ZM19.8337 13.5C19.5117 13.5 19.2504 13.248 19.2504 12.9375V12.375C19.2504 9.58387 16.8949 7.3125 14.0004 7.3125C13.6784 7.3125 13.417 7.0605 13.417 6.75C13.417 6.4395 13.6784 6.1875 14.0004 6.1875C17.5383 6.1875 20.417 8.96344 20.417 12.375V12.9375C20.417 13.248 20.1557 13.5 19.8337 13.5ZM16.2509 12.375C15.9919 12.375 15.755 12.2074 15.6868 11.9542C15.5269 11.3631 15.0486 10.9012 14.4379 10.7494C14.1258 10.6712 13.9385 10.3646 14.019 10.0637C14.0995 9.76331 14.4169 9.58275 14.7301 9.65981C15.7498 9.91462 16.5489 10.6847 16.8155 11.6702C16.8966 11.9711 16.7099 12.2777 16.3984 12.3564C16.3489 12.3688 16.2993 12.375 16.2509 12.375Z" fill="#7E57C2"/>
<path d="M18.0829 12.9376C17.7609 12.9376 17.4996 12.6856 17.4996 12.3751C17.4996 10.5818 16.0448 9.10244 14.1874 9.00794C13.8654 8.99163 13.6187 8.72669 13.6356 8.41676C13.6525 8.10626 13.9319 7.86776 14.2487 7.88463C16.7261 8.01063 18.6663 9.98332 18.6663 12.3751C18.6663 12.6856 18.4049 12.9376 18.0829 12.9376Z" fill="#7E57C2"/>
<path d="M14 2.25C11.375 2.25 7.28463 2.48288 4.79263 4.67775C3.03097 6.36919 2.3333 8.74181 2.3333 11.8125C2.3333 12.0667 2.33213 12.3503 2.33447 12.6562C2.33213 12.9617 2.3333 13.2452 2.3333 13.4994C2.3333 16.5701 3.03097 18.9427 4.79263 20.6342C5.74113 21.4695 6.92413 22.0191 8.16663 22.3813V24.9609C8.16663 25.8587 8.77855 25.875 8.89055 25.875H8.8958C9.18397 25.8739 9.43305 25.7377 9.68272 25.524C9.77663 25.4436 10.861 24.2781 12.0405 23.0034C12.7429 23.0468 13.4102 23.0625 13.9994 23.0625C16.6244 23.0625 20.7141 22.8291 23.2067 20.6342C24.9678 18.9433 25.666 16.5701 25.666 13.4994C25.666 13.2452 25.6672 12.9617 25.6649 12.6557C25.6672 12.3497 25.666 12.0668 25.666 11.8119C25.666 8.74125 24.9684 6.36862 23.2067 4.67719C20.7147 2.48287 16.625 2.25 14 2.25ZM23.9166 13.3037V13.4994C23.9166 16.2591 23.307 18.1395 21.9998 19.4124C19.7353 21.375 15.4215 21.375 13.9994 21.375C13.5665 21.375 12.8642 21.3744 12.0353 21.3188C11.8049 21.5685 9.3333 24.2342 9.3333 24.2342V20.9363C8.10597 20.6522 6.89322 20.1864 6.00013 19.413C4.69288 18.1395 4.0833 16.2591 4.0833 13.4994V13.3037C4.0833 13.1062 4.08272 12.8931 4.08447 12.6439C4.08272 12.4189 4.08272 12.2063 4.0833 12.0082V11.8125C4.0833 9.05288 4.69288 7.17244 6.00013 5.8995C8.26405 3.93694 12.5784 3.93694 14 3.93694C15.4215 3.93694 19.7353 3.93694 21.9992 5.8995C23.307 7.17244 23.916 9.05288 23.916 11.8125V12.0082C23.916 12.2057 23.9166 12.4189 23.9149 12.6681C23.9166 12.8936 23.9166 13.1062 23.9166 13.3037Z" fill="#7E57C2"/>
</svg>
