<svg width="28" height="27" viewBox="0 0 28 27" fill="none" xmlns="http://www.w3.org/2000/svg">
<path d="M2.83984 24.3579L4.41134 18.8258C3.44184 17.2069 2.93201 15.3698 2.93259 13.4882C2.93551 7.60163 7.90318 2.8125 14.0083 2.8125C16.9711 2.81363 19.7513 3.92569 21.8425 5.94338C23.9332 7.96163 25.0847 10.6436 25.0835 13.4966C25.0812 19.3832 20.1123 24.1729 14.0083 24.1729C14.0078 24.1729 14.0083 24.1729 14.0083 24.1729H14.0037C12.1504 24.1723 10.3287 23.724 8.71109 22.8729L2.83984 24.3579Z" fill="white"/>
<path d="M2.83926 24.6392C2.76226 24.6392 2.6876 24.6099 2.63218 24.5559C2.55926 24.4845 2.53068 24.3804 2.5581 24.2843L4.09751 18.864C3.14318 17.2294 2.63976 15.3731 2.64093 13.4887C2.64326 7.44637 7.74218 2.53125 14.0078 2.53125C17.0469 2.53238 19.9023 3.67369 22.0484 5.74481C24.1945 7.8165 25.3758 10.5694 25.3746 13.4966C25.3723 19.5384 20.2728 24.4541 14.0078 24.4541C12.1475 24.4536 10.3071 24.0109 8.67376 23.1733L2.91335 24.6296C2.88885 24.6364 2.86435 24.6392 2.83926 24.6392Z" fill="white"/>
<path d="M14.0079 2.8125C16.9707 2.81362 19.7508 3.92569 21.8421 5.94338C23.9328 7.96163 25.0843 10.6436 25.0831 13.4966C25.0808 19.3832 20.1119 24.1729 14.0079 24.1729H14.0033C12.15 24.1723 10.3283 23.724 8.71068 22.8729L2.83943 24.3579L4.41093 18.8257C3.44143 17.2069 2.9316 15.3698 2.93218 13.4882C2.9351 7.60162 7.90277 2.8125 14.0079 2.8125ZM14.0079 2.25C7.58193 2.25 2.35177 7.29112 2.34885 13.4882C2.34827 15.3821 2.8441 17.2485 3.78443 18.9006L2.27652 24.21C2.22168 24.4041 2.27768 24.6111 2.42468 24.7539C2.53552 24.8619 2.68543 24.921 2.83943 24.921C2.88902 24.921 2.9386 24.9148 2.9876 24.9024L8.63835 23.4737C10.288 24.2994 12.1372 24.7354 14.0033 24.7359C20.4339 24.7359 25.6641 19.6943 25.667 13.4972C25.6682 10.494 24.4566 7.67025 22.2557 5.54625C20.0536 3.42169 17.1247 2.25113 14.0079 2.25Z" fill="#CFD8DC"/>
<path d="M20.5191 7.21834C18.7808 5.54096 16.4702 4.61677 14.0108 4.61621C8.93351 4.61621 4.80409 8.59646 4.80176 13.4891C4.80118 15.1659 5.28768 16.7983 6.20934 18.2118L6.42867 18.5476L5.49826 21.822L8.98251 20.9411L9.31909 21.1335C10.7319 21.9423 12.3524 22.3698 14.0044 22.3704H14.0079C19.0818 22.3704 23.2112 18.3896 23.2129 13.4964C23.2135 11.1255 22.2574 8.89571 20.5191 7.21834Z" fill="#40C351"/>
<path fill-rule="evenodd" clip-rule="evenodd" d="M11.24 9.02507C11.0329 8.58069 10.8147 8.57169 10.617 8.56382C10.4554 8.55707 10.271 8.55763 10.0867 8.55763C9.90238 8.55763 9.60255 8.62457 9.3488 8.89175C9.09505 9.15894 8.37988 9.80413 8.37988 11.117C8.37988 12.4299 9.37155 13.6989 9.5098 13.8766C9.64805 14.0544 11.4243 16.8348 14.2371 17.9047C16.5745 18.7934 17.0505 18.6168 17.5581 18.5724C18.0655 18.5279 19.1955 17.9272 19.4259 17.3039C19.6563 16.6807 19.6563 16.1469 19.5875 16.0355C19.518 15.9241 19.3337 15.8578 19.0572 15.7239C18.7807 15.59 17.4198 14.9448 17.166 14.8559C16.9123 14.7671 16.728 14.7226 16.543 14.9898C16.3587 15.2564 15.8285 15.8578 15.6669 16.0355C15.5053 16.2138 15.3437 16.2363 15.0672 16.1024C14.7907 15.9686 13.8994 15.6873 12.8418 14.7783C12.0193 14.0713 11.464 13.1977 11.3024 12.9305C11.1408 12.6639 11.2849 12.5193 11.4237 12.386C11.548 12.2662 11.7002 12.0744 11.839 11.9186C11.9773 11.7628 12.0234 11.6514 12.1155 11.4736C12.2077 11.2953 12.1616 11.1395 12.0922 11.0062C12.024 10.8723 11.4861 9.55269 11.24 9.02507Z" fill="white"/>
</svg>
