<svg width="38" height="50" viewBox="0 0 38 50" fill="none" xmlns="http://www.w3.org/2000/svg">
<path d="M17.8612 48.3472C3.43214 27.817 0.806149 25.6719 0.574511 18.2953C0.257216 8.19107 8.16361 0.271405 18.234 0.606203C28.3044 0.941001 36.7252 9.40348 37.0425 19.5077C37.2742 26.8843 34.7775 28.8591 21.609 48.4718C20.7447 49.7542 18.8078 49.6897 17.8612 48.3472ZM19.0479 26.5246C23.2439 26.6641 26.5382 23.3643 26.406 19.1541C26.2738 14.944 22.7651 11.418 18.5691 11.2785C14.3731 11.139 11.0788 14.4388 11.211 18.649C11.3432 22.8591 14.8519 26.3851 19.0479 26.5246Z" fill="#F9B902"/>
</svg>
