<svg width="50" height="40" viewBox="0 0 50 40" fill="none" xmlns="http://www.w3.org/2000/svg">
<path d="M45.5029 28.5722L30.8545 28.5722C28.4609 28.5722 26.332 29.698 24.9951 31.4353C23.6582 29.698 21.5293 28.5722 19.1357 28.5722L4.4873 28.5722C3.67871 28.5722 3.02246 29.2123 3.02246 30.0009L3.02246 31.4296L15.3066 31.4296C18.7336 31.4296 22.1428 32.0917 24.9951 33.946C27.8464 32.0922 31.2552 31.4296 34.6835 31.4296L46.9677 31.4296L46.9677 30.0009C46.9677 29.2123 46.3115 28.5722 45.5029 28.5722Z" fill="#5A5A5A"/>
<path d="M22.2507 39.0584C20.6272 37.7878 18.2924 37.1435 15.311 37.1435L1.46484 37.1435C0.655859 37.1435 3.11087e-08 36.5039 2.00408e-08 35.715C8.97293e-09 34.926 0.655859 34.2864 1.46484 34.2864L15.311 34.2864C18.976 34.2864 21.9278 35.1423 24.0845 36.8303C24.6189 37.2486 25.3808 37.2488 25.9155 36.8303C28.0722 35.1423 31.024 34.2864 34.689 34.2864L48.5352 34.2864C49.3441 34.2864 50 34.926 50 35.715C50 36.5039 49.3441 37.1435 48.5352 37.1435L34.689 37.1435C31.7076 37.1435 29.3728 37.7878 27.7492 39.0584C26.154 40.3071 23.8632 40.3206 22.2507 39.0584Z" fill="#5A5A5A"/>
<path d="M35.251 14.4575L35.251 18.5718C35.251 19.1128 34.9376 19.608 34.4415 19.8499L27.9629 23.0081C27.2452 23.3586 26.5879 23.81 26.0098 24.3491C25.4434 24.8767 24.5508 24.8767 23.9844 24.3491C23.4063 23.81 22.749 23.3586 22.0313 23.0081L15.5527 19.8499C15.0566 19.608 14.7432 19.1128 14.7432 18.5718L14.7432 14.4575L23.7901 16.9785C24.5634 17.1942 25.4027 17.2021 26.2041 16.9785L35.251 14.4575Z" fill="#5A5A5A"/>
<path d="M41.1162 12.8249L41.1162 21.4291C41.1162 22.2177 40.46 22.8577 39.6514 22.8577C38.8428 22.8577 38.1865 22.2177 38.1865 21.4291L38.1865 13.6411L41.1162 12.8249Z" fill="#5A5A5A"/>
<path d="M24.6 14.2312L4.09218 8.51676C2.68143 8.1237 2.67899 6.16327 4.09218 5.76944L24.6 0.0550012C24.863 -0.0183341 25.1418 -0.0183341 25.4048 0.0550012L45.9126 5.76944C47.3234 6.1625 47.3258 8.12294 45.9126 8.51676L25.4048 14.2312C25.1429 14.3042 24.8641 14.3047 24.6 14.2312Z" fill="#5A5A5A"/>
</svg>
