<svg width="50" height="40" viewBox="0 0 50 40" fill="none" xmlns="http://www.w3.org/2000/svg">
<path d="M31.4835 0.633471C25.9198 -1.04514 21.3191 1.02224 19.4362 2.10846C17.5523 1.02224 12.9516 -1.04514 7.38889 0.633472C4.3648 1.5465 1.95436 3.91697 0.77805 7.13602C-0.761335 11.3473 0.0117753 16.2016 2.8469 20.1226C4.69164 22.6747 5.89638 25.5537 6.33093 28.4484C6.35544 28.6161 6.38083 28.7883 6.40436 28.9634C7.36936 36.0086 9.30902 39.7168 12.1696 39.9867C13.8696 40.147 15.2661 38.8599 16.3162 36.1633C17.0277 34.3364 17.5875 31.8921 17.8938 29.2793C18.1033 27.4948 18.6111 26.5044 19.0007 25.9885C19.1396 25.8052 19.3334 25.7775 19.4362 25.7775C19.539 25.7775 19.7328 25.8052 19.8708 25.9885C20.2603 26.5044 20.7691 27.4948 20.9786 29.2793C21.284 31.8921 21.8447 34.3363 22.5562 36.1633C23.5475 38.7107 24.8472 39.9995 26.4229 39.9995C26.5149 39.9995 26.6088 39.995 26.7028 39.9867C29.5634 39.7168 31.5031 36.0085 32.4671 28.9634C32.4906 28.7939 32.514 28.6289 32.5385 28.4668C32.6296 27.8569 32.7548 27.2479 32.9133 26.6426C32.4064 26.7219 31.8906 26.7707 31.369 26.7863C31.231 26.7918 31.092 26.7937 30.9531 26.7937C30.5919 26.7937 30.2338 26.779 29.8785 26.7485C27.1216 26.5173 24.5585 25.3998 22.5708 23.5434C20.313 21.4364 19.0623 18.6264 19.0486 15.6331C19.0359 12.6399 20.2612 9.82069 22.5003 7.69522C24.7522 5.55687 27.7548 4.37946 30.9539 4.37946C31.6175 4.37946 32.2742 4.43011 32.9162 4.53059C33.797 4.66692 34.6523 4.89545 35.4704 5.21141L35.4714 5.21141C36.2915 5.52838 37.0735 5.93185 37.8035 6.41833C36.548 3.56598 34.2785 1.47737 31.4835 0.633471Z" fill="#5A5A5A"/>
<path d="M41.6886 20.4458C41.4704 20.8751 41.2209 21.2915 40.9409 21.6933C40.6737 22.0811 40.3772 22.4561 40.0552 22.8136C39.8506 23.042 39.6354 23.2632 39.4092 23.4779C39.1832 23.6925 38.9503 23.8971 38.7095 24.0915C38.3317 24.3973 37.9373 24.6793 37.5273 24.9345C37.1036 25.2016 36.6622 25.4403 36.208 25.6494L44.5188 33.4077L50.0004 28.205L41.6886 20.4458Z" fill="#5A5A5A"/>
<path d="M38.8707 11.6162C38.4577 10.8875 37.9244 10.2029 37.2686 9.59127C37.254 9.5784 37.2402 9.56452 37.2256 9.55165C36.6628 9.033 36.0463 8.5981 35.3925 8.24897L35.3925 8.24805C35.233 8.16237 35.0716 8.08129 34.9081 8.00573C34.7779 7.94497 34.6458 7.88779 34.5127 7.83438L34.5117 7.83438C34.3121 7.75238 34.1095 7.67774 33.9049 7.61146C33.8364 7.5894 33.7679 7.56816 33.6994 7.54693C33.6563 7.53406 33.6132 7.5211 33.5702 7.50915C33.5056 7.49076 33.441 7.47228 33.3764 7.45574C33.2472 7.42071 33.1161 7.38937 32.9849 7.36179C32.9194 7.34708 32.8538 7.33412 32.7883 7.32125C32.7452 7.31206 32.7012 7.3047 32.6571 7.29634C32.5866 7.28347 32.5162 7.27142 32.4457 7.26039C32.3752 7.24936 32.3048 7.23925 32.2333 7.22905C31.8085 7.17196 31.3809 7.14337 30.9532 7.14337C28.9342 7.14337 26.9143 7.78088 25.2662 9.05598C25.1488 9.14625 25.0333 9.24112 24.9188 9.33884C24.8052 9.43646 24.6937 9.53694 24.584 9.641C21.0961 12.9521 21.1195 18.2973 24.6369 21.5807C25.1497 22.0588 25.7075 22.467 26.2986 22.8051C26.4004 22.864 26.5032 22.9202 26.6079 22.9746C26.6079 22.9746 26.6079 22.9746 26.6088 22.9755C26.7371 23.0419 26.8663 23.1063 26.9974 23.1662C27.0629 23.1967 27.1286 23.2261 27.1951 23.2547C27.333 23.3145 27.472 23.3717 27.6129 23.4242C27.9202 23.5403 28.2324 23.6398 28.5485 23.7218C28.6356 23.7448 28.7227 23.766 28.8108 23.7863C29.4244 23.9281 30.0508 24.0083 30.6781 24.0249C30.7691 24.0286 30.8611 24.0295 30.9521 24.0295C30.9796 24.0295 31.0069 24.0295 31.0343 24.0286C31.0618 24.0295 31.0891 24.0286 31.1166 24.0277C31.1753 24.0268 31.234 24.0258 31.2927 24.0231C31.3465 24.0212 31.4013 24.0185 31.4552 24.0157C31.5638 24.0102 31.6725 24.0029 31.7811 23.9936C31.8349 23.989 31.8897 23.9835 31.9436 23.9779C31.9974 23.9724 32.0512 23.9669 32.1051 23.9596C32.1599 23.954 32.2137 23.9467 32.2676 23.9393C32.4036 23.92 32.5387 23.8979 32.6747 23.873C32.7275 23.8638 32.7813 23.8527 32.8343 23.8425C33.0467 23.8002 33.258 23.7504 33.4665 23.6923C33.6241 23.65 33.7796 23.6021 33.9342 23.5514C33.9352 23.5514 33.9352 23.5505 33.9352 23.5505C33.9411 23.5496 33.9459 23.5477 33.9508 23.5459C33.9802 23.5358 34.0095 23.5266 34.0379 23.5155L34.0389 23.5145C34.0732 23.5044 34.1065 23.4925 34.1397 23.4804C34.4137 23.3828 34.6838 23.2713 34.9471 23.1479C35.0792 23.0862 35.2094 23.0216 35.3385 22.9534C35.4042 22.9184 35.4687 22.8834 35.5323 22.8475C35.635 22.7905 35.7359 22.7314 35.8367 22.6688C35.9248 22.6154 36.0119 22.5601 36.097 22.5039C36.2203 22.4228 36.3416 22.3381 36.4611 22.2506C36.7596 22.0313 37.0473 21.7908 37.3213 21.5311C38.3029 20.5988 39.0066 19.5052 39.4322 18.3425C40.237 16.1434 40.0491 13.6965 38.8707 11.6162Z" fill="#5A5A5A"/>
</svg>
