<svg width="124" height="52" fill="none" xmlns="http://www.w3.org/2000/svg"><g clip-path="url(#clip0)"><path d="M86.557 37.915S83.934 47.893 80 49.556c0 0 1.749.416 4.808-2.494 3.06-2.91 4.809-6.652 4.809-6.652l34.095-2.495H86.557z" fill="#F9D069"/><path d="M36.042 25.126h2.169c.542 0 .96.124 1.251.332.292.208.417.54.417.873 0 .167-.041.375-.125.54a1.953 1.953 0 01-.375.5 2.25 2.25 0 01-.71.332c.418.042.751.167.96.291.25.125.417.333.5.5.084.166.126.415.126.623 0 .457-.167.831-.5 1.122-.335.291-.793.416-1.42.416H36v-.166c.167 0 .334-.042.417-.083.084-.042.167-.083.167-.208.042-.083.042-.25.042-.416v-3.908c0-.208 0-.333-.042-.416-.042-.083-.083-.166-.167-.208-.083-.041-.208-.041-.417-.041v-.083h.042zm1.96.166c-.25 0-.417.041-.459.125-.083.083-.125.29-.125.54v3.908c0 .291.042.458.125.54.084.084.25.125.46.125.5 0 .875-.124 1.125-.374s.334-.582.334-1.04c0-.415-.125-.706-.334-.955-.208-.208-.584-.333-1.084-.333h-.834v-.125h.667c.292 0 .542-.041.71-.166a.872.872 0 00.333-.457c.083-.208.083-.416.083-.624 0-.374-.083-.665-.25-.873-.042-.208-.334-.291-.75-.291zm6.133-.207l1.919 4.989c.083.207.166.332.25.415.083.084.208.084.292.125v.166H44.76v-.166c.25 0 .46-.041.501-.125.083-.083.042-.25-.042-.54l-1.46-3.908.126-.083-1.377 3.575c-.125.291-.167.499-.167.665 0 .167.084.291.167.333.125.083.292.125.5.125v.166h-1.5v-.166c.125-.042.208-.083.334-.167.125-.083.208-.25.291-.498l1.878-4.782h.083c.042 0 0-.124.042-.124zm.96 3.367v.166h-2.378l.083-.166h2.294zm10.01-3.326v.166c-.167 0-.334.042-.417.042-.084.041-.167.083-.167.208-.042.083-.042.25-.042.415v3.909c0 .207 0 .332.042.415.042.083.083.167.167.208.083.042.208.042.417.083v.166h-7.216v-.166c.166 0 .333-.041.417-.083.083-.041.167-.083.167-.208.041-.083.041-.25.041-.415v-3.909c0-.207 0-.332-.041-.415-.042-.083-.084-.167-.167-.208-.084-.042-.209-.042-.417-.042v-.166h1.918v.166c-.166 0-.291.042-.375.042-.083.041-.125.083-.167.208-.041.083-.041.25-.041.415v3.909c0 .29.041.457.125.54.083.083.25.125.542.125h.626c.25 0 .458-.042.542-.125.083-.083.125-.25.125-.54v-3.909c0-.207 0-.332-.042-.415-.042-.083-.083-.167-.167-.208-.083-.042-.208-.042-.375-.042v-.166h1.877v.166c-.167 0-.292.042-.375.042-.084.041-.125.083-.167.208-.042.124-.042.25-.042.415v3.909c0 .29.042.457.125.54.084.083.25.125.542.125h.626c.25 0 .459-.042.542-.125.084-.083.126-.25.126-.54v-3.909c0-.207 0-.332-.042-.415-.042-.083-.084-.167-.167-.208-.083-.042-.209-.042-.375-.042v-.166h1.835zM62.197 25c.5 0 .96.125 1.335.333.375.208.667.54.876.956.208.416.333.956.333 1.538 0 .582-.125 1.123-.333 1.538-.209.458-.5.79-.876 1.04s-.834.374-1.293.374c-.5 0-.96-.125-1.335-.333-.376-.208-.668-.54-.876-.998-.209-.415-.334-.956-.334-1.538 0-.582.125-1.122.334-1.538.209-.457.5-.79.876-1.04A2.595 2.595 0 0162.197 25zm-.042.166c-.334 0-.625.125-.876.375a2.35 2.35 0 00-.584.997 5.1 5.1 0 00-.208 1.455c0 .54.083 1.04.25 1.456.167.415.375.748.626.956.25.208.542.332.876.332.333 0 .625-.124.876-.374.25-.25.458-.582.584-.998.125-.415.208-.914.208-1.455 0-.582-.083-1.04-.25-1.455-.167-.416-.375-.748-.626-.956a1.349 1.349 0 00-.876-.333zm4.211-.04h2.169c.626 0 1.127.125 1.419.416.333.29.458.665.458 1.122 0 .208-.041.374-.083.582-.083.208-.167.416-.334.582-.167.167-.375.333-.626.416a3.41 3.41 0 01-1.042.166h-.751v-.166h.667c.376 0 .668-.083.876-.208.209-.125.334-.332.417-.54.084-.25.126-.5.126-.749 0-.498-.084-.873-.293-1.122-.208-.25-.542-.374-1-.374-.25 0-.418.041-.46.124-.083.084-.125.291-.125.54v3.909c0 .208 0 .332.042.416a.427.427 0 00.25.208c.126.041.292.041.501.083v.166h-2.169v-.166c.167 0 .334-.042.417-.083.084-.042.167-.084.167-.208.042-.083.042-.25.042-.416v-3.908c0-.208 0-.333-.042-.416-.042-.083-.084-.166-.167-.208-.083-.041-.209-.041-.417-.041v-.125h-.042zm9.888 0c-.042.208-.042.374-.042.582v1.08h-.167c-.041-.373-.083-.664-.166-.872-.084-.208-.167-.374-.334-.457-.167-.084-.417-.125-.751-.125h-.417v4.49c0 .208 0 .374.042.457.041.125.125.167.25.208.125.042.292.042.5.083v.166h-2.335v-.166c.208 0 .375-.041.5-.083a.427.427 0 00.25-.208c.042-.124.042-.25.042-.457v-4.49h-.417c-.334 0-.584.041-.75.125a.644.644 0 00-.335.457c-.083.208-.125.499-.166.873h-.167v-1.081c0-.166-.042-.374-.042-.582h4.505zM80.342 25c.5 0 .959.125 1.334.333.376.208.668.54.876.956.209.416.334.956.334 1.538 0 .582-.125 1.123-.334 1.538-.208.458-.5.79-.876 1.04-.375.25-.834.374-1.293.374-.5 0-.96-.125-1.334-.333-.376-.208-.668-.54-.876-.998-.209-.415-.334-.956-.334-1.538 0-.582.125-1.122.334-1.538.208-.457.5-.79.876-1.04A2.596 2.596 0 0180.342 25zm0 .166a1.2 1.2 0 00-.876.375 2.35 2.35 0 00-.584.997 5.097 5.097 0 00-.209 1.455c0 .54.084 1.04.25 1.456.167.415.376.748.626.956.25.208.542.332.876.332.334 0 .626-.124.876-.374s.459-.582.584-.998c.125-.415.209-.914.209-1.455 0-.582-.084-1.04-.25-1.455-.168-.416-.376-.748-.626-.956-.292-.208-.584-.333-.876-.333zm8.425-.039v.166c-.166 0-.333.042-.417.042-.083.041-.166.083-.166.208-.042.083-.042.249-.042.415v3.908c0 .291.041.458.125.54.083.084.25.126.542.126h.25a2.363 2.363 0 00-.041.54v.416c0 .208 0 .374.041.499h-.166c-.042-.291-.084-.54-.126-.749a.762.762 0 00-.291-.415c-.126-.084-.334-.125-.626-.125h-2.253c-.292 0-.5.041-.625.125a.637.637 0 00-.292.415 6.821 6.821 0 00-.125.749h-.167c0-.125.041-.291.041-.5v-.415c0-.208-.041-.333-.041-.54h2.544c.25 0 .459-.042.542-.125.084-.083.126-.25.126-.54v-3.909c0-.29-.042-.457-.126-.54-.083-.083-.25-.125-.542-.125h-.083c-.167 0-.334 0-.417.042-.084.041-.126.083-.167.208-.042.083-.042.249-.084.415-.041.375-.041.749-.083 1.164l-.125 1.248a5.28 5.28 0 01-.25 1.164c-.126.374-.25.623-.46.831-.208.208-.458.333-.75.333v-.166c.25 0 .459-.084.625-.291.167-.167.292-.416.418-.749.083-.29.166-.665.25-1.08l.125-1.248c.042-.416.042-.873.084-1.289 0-.29 0-.457-.084-.54-.083-.083-.25-.125-.542-.125v-.166h3.295c-.083.083.042.083.084.083zM93.021 25c.5 0 .96.125 1.335.333.376.208.668.54.876.956.209.416.334.956.334 1.538 0 .582-.125 1.123-.334 1.538-.209.458-.5.79-.876 1.04-.375.25-.834.374-1.293.374-.5 0-.96-.125-1.335-.333-.375-.208-.667-.54-.876-.998-.208-.415-.333-.956-.333-1.538 0-.582.125-1.122.333-1.538.209-.457.5-.79.876-1.04A2.596 2.596 0 0193.021 25zm0 .166c-.333 0-.625.125-.876.375a2.35 2.35 0 00-.584.997 5.097 5.097 0 00-.208 1.455c0 .54.083 1.04.25 1.456.167.415.376.748.626.956.25.208.542.332.876.332.333 0 .625-.124.876-.374.25-.25.459-.582.584-.998.125-.415.208-.914.208-1.455 0-.582-.083-1.04-.25-1.455-.167-.416-.375-.748-.626-.956-.292-.208-.584-.333-.876-.333zm4.171 5.572v-.166c.167 0 .334-.041.418-.083.083-.041.166-.083.166-.208.042-.083.042-.25.042-.415v-3.909c0-.207 0-.332-.042-.415-.041-.083-.083-.167-.166-.208-.084-.042-.209-.042-.418-.042v-.166h2.003v.166c-.167 0-.334.042-.417.042-.084.041-.167.083-.167.208 0 .124-.042.25-.042.415v3.909c0 .207 0 .332.042.415.041.083.083.167.166.208.084.042.209.042.418.083v.166h-1.586a.714.714 0 00-.417 0zm1.127-2.743v-.167h3.128v.167h-3.128zm2.21 2.743v-.166c.167 0 .334-.041.417-.083.084-.041.167-.083.167-.208.042-.083.042-.25.042-.415v-3.909c0-.207 0-.332-.042-.415-.041-.083-.083-.167-.167-.208-.083-.042-.208-.042-.417-.042v-.166h2.002v.166c-.166 0-.333.042-.417.042-.083.041-.166.083-.166.208-.042.083-.042.25-.042.415v3.909c0 .207 0 .332.042.415.041.083.083.167.166.208.084.042.209.042.417.083v.166h-1.543c-.208-.041-.334-.041-.459 0zm7.968-5.612c-.042.208-.042.374-.042.582v1.08h-.167c-.042-.373-.083-.664-.167-.872-.083-.208-.167-.374-.334-.457-.166-.084-.417-.125-.751-.125h-.417v4.49c0 .208 0 .374.042.457.042.125.125.167.25.208.125.042.292.042.501.083v.166h-2.336v-.166c.208 0 .375-.041.5-.083a.43.43 0 00.251-.208c.041-.124.041-.25.041-.457v-4.49h-.417c-.333 0-.584.041-.751.125a.644.644 0 00-.333.457c-.042.208-.125.499-.167.873h-.167v-1.081c0-.166-.042-.374-.042-.582h4.506zm-56.955 7.909c.167 0 .334.042.417.083a.748.748 0 01.292.208c.042.042.084.042.125 0 .042-.042.042-.125.042-.208h.083v.956h-.083c0-.124-.042-.207-.042-.29 0-.084-.041-.125-.041-.167-.042-.042-.042-.083-.084-.166-.083-.125-.167-.208-.292-.25a1.22 1.22 0 00-.375-.083.788.788 0 00-.334.083.585.585 0 00-.25.291c-.042.125-.125.291-.167.458-.042.166-.042.374-.042.623 0 .25.042.458.084.624.041.166.125.332.208.457a.974.974 0 00.292.291c.125.083.209.083.376.083.125 0 .25-.041.375-.083.125-.041.25-.124.292-.25l.125-.249c.042-.083.042-.208.042-.415h.083v.997h-.083c0-.124-.042-.207-.042-.207s-.083-.042-.125 0c-.084.083-.209.124-.334.207-.125.042-.25.084-.417.084-.25 0-.459-.042-.667-.167-.209-.124-.334-.29-.46-.499-.124-.208-.166-.499-.166-.831 0-.291.042-.582.167-.832s.25-.415.459-.54c.208-.125.292-.208.542-.208zm3.796.084c0 .125 0 .208-.041.29v.583h-.084a1.28 1.28 0 00-.083-.457c-.042-.125-.084-.208-.167-.25a.835.835 0 00-.376-.083h-.208v2.37c0 .124 0 .208.042.25 0 .04.041.082.125.124.041 0 .125.041.25.041v.084h-1.168v-.084c.125 0 .209 0 .25-.041.042 0 .084-.042.126-.125 0-.041.041-.124.041-.25v-2.369h-.208a.835.835 0 00-.376.083c-.083.042-.125.125-.167.25-.041.124-.041.25-.083.457h-.083v-.582c0-.083 0-.208-.042-.291h2.252zm1.794-.082c.25 0 .459.041.667.166.209.125.334.29.46.499.124.208.166.499.166.831 0 .291-.042.582-.167.832s-.25.416-.459.54c-.208.125-.417.208-.667.208-.25 0-.459-.041-.667-.166-.209-.125-.334-.291-.46-.5-.124-.207-.166-.498-.166-.83 0-.292.042-.583.167-.832.125-.25.25-.416.459-.54.208-.125.417-.208.667-.208zm0 .083a.67.67 0 00-.459.208c-.125.124-.209.29-.292.498a2.01 2.01 0 00-.125.749c0 .29.042.54.125.748.084.208.167.374.334.5a.629.629 0 00.459.165.67.67 0 00.459-.207c.125-.125.208-.291.291-.5a1.99 1.99 0 00.126-.748c0-.29-.042-.54-.126-.79-.083-.208-.166-.374-.333-.498a.953.953 0 00-.46-.125zm5.006-.001v.083c-.083 0-.166 0-.208.042-.042 0-.084.041-.084.083 0 .041-.041.125-.041.208v2.078c0 .084 0 .167.041.208 0 .042.042.083.084.083s.125.042.208.042v.083h-1.001v-.083c.084 0 .167 0 .209-.042a.088.088 0 00.083-.083c0-.041.042-.124.042-.208v-2.286l-.96 2.744h-.083l-1-2.703v2.204c0 .083 0 .166.04.25.043.082.043.082.084.124.042.041.125.041.25.041v.084h-.75v-.084c.083 0 .167 0 .208-.041.042-.042.084-.083.084-.125 0-.041.041-.124.041-.25v-2.036c0-.083 0-.167-.041-.208 0-.042-.042-.083-.084-.083-.041 0-.125-.042-.208-.042v-.083h.708l.917 2.494-.083.042.918-2.495h.46c0-.041.083-.041.166-.041zm1.625-.043l.96 2.62a.442.442 0 00.124.207c.042.042.084.042.126.042v.083h-.96v-.083c.125 0 .209-.042.25-.083.042-.042.042-.125-.041-.291l-.751-2.08.083-.04-.709 1.87c-.041.166-.083.25-.083.333 0 .083.042.124.083.166.042.042.125.042.25.042v.083h-.75v-.083a.316.316 0 00.167-.084c.041-.041.125-.124.166-.249l.918-2.536c.125.083.125.083.167.083zm.5 1.788v.083h-1.167l.041-.083h1.126zm3.297-1.745c0 .125 0 .208-.042.29v.583h-.083c0-.208-.042-.333-.083-.457-.042-.125-.084-.208-.167-.25a.835.835 0 00-.376-.083h-.208v2.37c0 .124 0 .208.041.25 0 .04.042.082.126.124.041 0 .125.041.25.041v.084H65.85v-.084c.125 0 .209 0 .25-.041.042 0 .084-.042.125-.125 0-.041.042-.124.042-.25v-2.369h-.209a.835.835 0 00-.375.083c-.083.042-.125.125-.167.25-.041.124-.041.25-.083.457h-.084v-.582c0-.083 0-.208-.041-.291h2.252zm1.793-.082c.25 0 .46.041.668.166.209.125.334.29.459.499.125.208.167.499.167.831 0 .291-.042.582-.167.832s-.25.416-.46.54c-.208.125-.416.208-.666.208-.25 0-.46-.041-.668-.166-.208-.125-.334-.291-.459-.5-.125-.207-.166-.498-.166-.83 0-.292.041-.583.166-.832.125-.25.25-.416.46-.54.208-.125.416-.208.666-.208zm0 .083a.67.67 0 00-.458.208c-.125.124-.209.29-.292.498a2.01 2.01 0 00-.125.749c0 .29.041.54.125.748.083.208.167.374.333.5a.629.629 0 00.46.165.67.67 0 00.458-.207c.125-.125.209-.291.292-.5.084-.207.125-.457.125-.748 0-.29-.041-.54-.125-.79-.083-.208-.167-.374-.334-.498a.953.953 0 00-.459-.125zm4.255-.001v.083c-.083 0-.167 0-.208.042-.042 0-.084.041-.084.083 0 .041-.041.125-.041.208v2.078c0 .084 0 .167.041.208 0 .042.042.083.084.083.041 0 .125.042.208.042v.083h-1.084v-.083c.125 0 .208 0 .25-.042.042-.041.083-.041.125-.083 0-.041.042-.124.042-.208v-2.078c0-.167 0-.25-.042-.291-.042-.042-.125-.084-.25-.084h-.042c-.083 0-.167 0-.208.042-.042 0-.084.042-.084.125 0 .041-.042.125-.042.208 0 .208-.041.415-.041.623 0 .208-.042.458-.042.707l-.125.624a1.163 1.163 0 01-.209.457c-.083.125-.208.166-.375.166a.594.594 0 01-.25-.083.228.228 0 01-.125-.208c0-.083.041-.124.083-.166.042-.042.083-.083.167-.083.041 0 .125 0 .125.041 0 .042.042.084.042.125 0 .042 0 .125-.042.166l-.125.125h.083c.125 0 .209-.041.292-.166a.973.973 0 00.209-.416c.041-.166.083-.374.125-.582.042-.208.042-.457.083-.665 0-.25.042-.458.042-.707 0-.166 0-.25-.042-.29-.041-.043-.125-.084-.292-.084h1.752zm1.837-.082c.25 0 .458.041.667.166.208.125.334.29.459.499.125.208.166.499.166.831 0 .291-.041.582-.166.832-.126.25-.25.416-.46.54-.208.125-.416.208-.666.208-.25 0-.46-.041-.668-.166-.209-.125-.334-.291-.459-.5-.125-.207-.167-.498-.167-.83 0-.292.042-.583.167-.832.125-.25.25-.416.46-.54.208-.125.416-.208.666-.208zm0 .083a.67.67 0 00-.46.208c-.124.124-.208.29-.291.498a2.01 2.01 0 00-.126.749c0 .29.042.54.126.748.083.208.166.374.333.5a.629.629 0 00.46.165.67.67 0 00.458-.207c.125-.125.209-.291.292-.5.083-.207.125-.457.125-.748 0-.29-.042-.54-.125-.79-.083-.208-.167-.374-.334-.498a.954.954 0 00-.459-.125zm3.67-.001c0 .125 0 .208-.042.29v.583h-.083a1.28 1.28 0 00-.084-.457c-.042-.125-.083-.208-.167-.25a.835.835 0 00-.375-.083h-.084c-.083 0-.166 0-.208.042-.042 0-.084.041-.084.083 0 .041-.041.125-.041.208v2.078c0 .084 0 .167.041.208 0 .042.042.083.126.083.041 0 .125.042.25.042v.083h-1.085v-.083c.084 0 .167 0 .209-.042.042-.041.083-.041.083-.083 0-.041.042-.124.042-.208v-2.078c0-.083 0-.167-.042-.208 0-.042-.041-.083-.083-.083s-.125-.042-.209-.042v-.083h1.836zm1.5 0v.083c-.083 0-.166 0-.208.042-.042 0-.084.041-.084.083 0 .041-.041.125-.041.208v2.078c0 .084 0 .167.041.208 0 .042.042.083.084.083.041 0 .125.042.208.042v.083h-1.001v-.083c.084 0 .167 0 .209-.042.042-.041.083-.041.083-.083 0-.041.042-.124.042-.208v-2.078c0-.083 0-.167-.042-.208 0-.042-.041-.083-.083-.083s-.125-.042-.209-.042v-.083h1.001zm1.127.25v.166l-1.586 2.37v-.167l1.586-2.37zm.625-.25v.083c-.083 0-.167 0-.208.042-.042 0-.084.041-.084.083 0 .041-.041.125-.041.208v2.078c0 .084 0 .167.041.208 0 .042.042.083.084.083.041 0 .125.042.208.042v.083h-1.042v-.083c.083 0 .166 0 .208-.042.042 0 .084-.041.084-.083 0-.041.041-.124.041-.208v-2.078c0-.083 0-.167-.041-.208 0-.042-.042-.083-.084-.083s-.125-.042-.209-.042v-.083h1.043zm2.17 1.455v.083h-.417a.594.594 0 00-.25.084c-.084.041-.084.124-.126.207-.041.084-.041.208-.083.291l-.084.416c-.041.166-.083.291-.166.374a.594.594 0 01-.25.083c-.126 0-.21-.041-.251-.083a.878.878 0 01-.167-.208l.042-.041c.042.041.083.083.083.125 0 .041.084.041.126.041.041 0 .083-.041.125-.083.041-.041.041-.125.083-.25l.083-.415c.042-.166.084-.291.167-.374.084-.083.209-.125.376-.167.041 0 .083 0 .166-.041h.21c.04-.042.166-.042.333-.042zm.625-1.455v.083c-.083 0-.166 0-.208.042-.042 0-.083.041-.083.083s-.042.125-.042.208v2.079c0 .083 0 .166.042.208 0 .041.041.083.083.083s.125.041.209.041v.083H84.12v-.083c.083 0 .166 0 .208-.041a.09.09 0 00.084-.084c0-.041.041-.124.041-.207v-2.08c0-.124 0-.249-.041-.29-.042-.042-.126-.083-.25-.083-.25 0-.418.041-.501.166a.89.89 0 00-.167.499c0 .125 0 .25.042.374.041.125.083.208.208.25.084.083.25.083.417.083h.334v.083h-.375c-.292 0-.5-.042-.626-.125a1.267 1.267 0 01-.334-.333c-.083-.124-.083-.249-.083-.374 0-.207.083-.374.25-.499.167-.124.417-.207.71-.207h.875a.746.746 0 00.25.041z" fill="#5A5A5A"/><path d="M53.015 38.225S55.55 48.203 60 49.866c0 0-1.978.416-5.439-2.494-3.461-2.91-5.439-6.652-5.439-6.652l-38.567-2.495h42.46zM82-1.207S75.918 6.374 67.03 4.69C58.14 3.005 57.671.9 52.058 1.32c-4.913.337-6.55 3.37-6.55 7.581v10.951L2 22.8h50.059s-.468-6.318-.468-8.845c0-2.821 3.274-5.475 7.953-5.475 4.678 0 5.1.843 9.357.843 5.614 0 8.889-2.527 8.889-2.527s2.339-1.685 3.274-3.37C82 1.742 82 .057 82 .057v-1.264zm9.63 13.064S90.177 17.645 88 18.61c0 0 .968.241 2.662-1.447 1.693-1.688 2.661-5.215 2.661-5.215V7.685l-1.694 4.172z" fill="#F9D069"/></g><defs><clipPath id="clip0"><path fill="#fff" d="M0 0h124v52H0z"/></clipPath></defs></svg>