<svg width="28" height="27" fill="none" xmlns="http://www.w3.org/2000/svg"><path d="M14 2.813c-1.54 0-6.225 0-8.815 2.28-1.542 1.481-2.269 3.622-2.269 6.72V13.5c0 3.097.727 5.238 2.287 6.736.777.684 1.837 1.23 3.132 1.608l.414.12v2.997c0 .352.106.352.14.352.073 0 .188-.022.406-.21.052-.05.437-.45 2.31-2.474l.189-.204.283.018c.627.037 1.274.057 1.922.057 1.54 0 6.225 0 8.815-2.28 1.541-1.483 2.269-3.623 2.269-6.72v-1.688c0-3.097-.727-5.237-2.288-6.736C20.223 2.813 15.54 2.813 14 2.813z" fill="#fff"/><path d="M19.513 16.23c-.648-.526-.947-.685-1.842-1.203-.372-.216-.94-.402-1.239-.402-.203 0-.447.15-.596.294-.383.37-.509.831-1.18.831-.656 0-1.802-.644-2.624-1.477-.864-.793-1.532-1.898-1.532-2.53 0-.648.47-.777.853-1.147.15-.143.314-.378.314-.575 0-.287-.193-.826-.416-1.186-.538-.863-.702-1.152-1.249-1.776-.185-.212-.395-.308-.616-.309-.373 0-.862.178-1.193.416-.498.358-1.02.846-1.159 1.453-.018.083-.03.166-.033.25-.027.632.23 1.275.51 1.819.654 1.281 1.521 2.522 2.464 3.63.302.355.63.684.97 1.003.33.327.672.644 1.04.935 1.15.91 2.436 1.746 3.765 2.377.56.266 1.217.51 1.867.492a1.55 1.55 0 00.278-.033c.63-.133 1.136-.636 1.508-1.117.246-.32.431-.79.43-1.15 0-.213-.1-.416-.32-.595zm.32-2.73a.573.573 0 01-.583-.563v-.562c0-2.791-2.355-5.063-5.25-5.063a.573.573 0 01-.583-.562c0-.31.261-.563.583-.563 3.538 0 6.417 2.776 6.417 6.188v.563c0 .31-.261.562-.583.562zm-3.582-1.125a.58.58 0 01-.564-.42 1.713 1.713 0 00-1.25-1.206.562.562 0 01-.418-.685c.08-.3.398-.481.711-.404 1.02.255 1.819 1.025 2.085 2.01a.561.561 0 01-.417.686.608.608 0 01-.147.019z" fill="#7E57C2"/><path d="M18.083 12.938a.573.573 0 01-.583-.563c0-1.793-1.455-3.273-3.313-3.367a.57.57 0 01-.551-.591.578.578 0 01.613-.532c2.477.126 4.417 2.098 4.417 4.49 0 .31-.261.563-.583.563z" fill="#7E57C2"/><path d="M14 2.25c-2.625 0-6.715.233-9.207 2.428-1.762 1.691-2.46 4.064-2.46 7.135l.001.843c-.002.306 0 .59 0 .843 0 3.071.697 5.444 2.459 7.135.948.835 2.131 1.385 3.374 1.747v2.58c0 .898.612.914.724.914h.005c.288-.001.537-.137.787-.351.094-.08 1.178-1.246 2.357-2.52.703.043 1.37.058 1.96.058 2.624 0 6.714-.233 9.207-2.428 1.76-1.69 2.459-4.064 2.459-7.135 0-.254.001-.537-.001-.843.002-.306.001-.59.001-.844 0-3.07-.698-5.443-2.46-7.135C20.716 2.483 16.626 2.25 14 2.25zm9.917 11.054v.195c0 2.76-.61 4.64-1.917 5.913-2.265 1.963-6.579 1.963-8 1.963-.434 0-1.136 0-1.965-.056-.23.25-2.702 2.915-2.702 2.915v-3.298c-1.227-.284-2.44-.75-3.333-1.523-1.307-1.273-1.917-3.154-1.917-5.914v-.195l.001-.66a59.01 59.01 0 010-.636v-.195c0-2.76.609-4.64 1.916-5.914 2.264-1.962 6.578-1.962 8-1.962 1.421 0 5.735 0 8 1.962 1.307 1.273 1.916 3.154 1.916 5.913v.196l-.001.66c.002.226.002.438.002.636z" fill="#7E57C2"/></svg>