<svg width="28" height="27" fill="none" xmlns="http://www.w3.org/2000/svg"><path d="M2.84 24.358l1.571-5.532a10.363 10.363 0 01-1.478-5.338c.003-5.886 4.97-10.675 11.075-10.675 2.963 0 5.743 1.113 7.835 3.13 2.09 2.019 3.242 4.7 3.24 7.554-.002 5.886-4.97 10.676-11.075 10.676h-.004c-1.854 0-3.675-.449-5.293-1.3L2.84 24.358z" fill="#fff"/><path d="M2.84 24.64a.296.296 0 01-.208-.084.275.275 0 01-.074-.272l1.54-5.42a10.654 10.654 0 01-1.457-5.375C2.643 7.446 7.742 2.53 14.008 2.53c3.039.001 5.894 1.143 8.04 3.214 2.147 2.071 3.328 4.824 3.327 7.752-.003 6.041-5.102 10.957-11.367 10.957-1.86 0-3.7-.443-5.334-1.28l-5.76 1.456a.274.274 0 01-.075.01z" fill="#fff"/><path d="M14.008 2.813c2.963 0 5.743 1.113 7.834 3.13 2.09 2.019 3.242 4.7 3.241 7.554-.002 5.886-4.971 10.676-11.075 10.676h-.005c-1.853 0-3.675-.449-5.292-1.3l-5.872 1.485 1.572-5.532a10.362 10.362 0 01-1.479-5.338c.003-5.886 4.97-10.675 11.076-10.675zm0-.563c-6.426 0-11.656 5.041-11.66 11.238 0 1.894.496 3.76 1.436 5.413L2.277 24.21a.548.548 0 00.148.544.595.595 0 00.563.148l5.65-1.428a12.032 12.032 0 005.365 1.262c6.43 0 11.661-5.042 11.664-11.239.001-3.003-1.21-5.827-3.411-7.95-2.202-2.125-5.131-3.296-8.248-3.297z" fill="#CFD8DC"/><path d="M20.52 7.218c-1.74-1.677-4.05-2.601-6.51-2.602-5.076 0-9.206 3.98-9.208 8.873a8.62 8.62 0 001.407 4.723l.22.336-.93 3.274 3.484-.88.336.192a9.449 9.449 0 004.685 1.236h.004c5.074 0 9.203-3.98 9.205-8.874 0-2.37-.956-4.6-2.694-6.278z" fill="#40C351"/><path fill-rule="evenodd" clip-rule="evenodd" d="M11.24 9.025c-.207-.444-.425-.453-.623-.461-.162-.007-.346-.006-.53-.006-.185 0-.484.067-.738.334s-.97.912-.97 2.225c0 1.313.993 2.582 1.13 2.76.139.177 1.915 2.958 4.728 4.028 2.338.888 2.813.712 3.321.667.508-.044 1.637-.645 1.868-1.268.23-.623.23-1.157.162-1.268-.07-.112-.254-.178-.53-.312-.277-.134-1.638-.78-1.892-.868-.254-.089-.438-.133-.623.134-.184.266-.714.868-.876 1.045-.162.179-.323.201-.6.067-.276-.133-1.168-.415-2.225-1.324-.823-.707-1.378-1.58-1.54-1.848-.161-.266-.017-.41.122-.544.124-.12.276-.312.415-.467.138-.156.184-.268.277-.445.092-.179.046-.335-.024-.468-.068-.134-.606-1.453-.852-1.98z" fill="#fff"/></svg>