<svg width="23" height="21" fill="none" xmlns="http://www.w3.org/2000/svg"><path d="M16.603 18.17l.025-.23c.055-.54-.292-1.317-.77-1.727l-1.772-1.52c-.48-.411-1.346-.658-1.92-.54l-1.047.217c-2.332-1.993-3.498-4.808-3.052-7.375l1.047-.217c.574-.119 1.114-.656 1.205-1.186l.333-1.956c.09-.529-.21-1.315-.668-1.747l-.196-.185c-.458-.432-1.302-.688-1.876-.569l-1.567.325c-.28.057-.646.45-.647.45-1.554 2.841-1.658 6.316-.284 9.635 1.37 3.31 4.096 6.188 7.556 7.99.018.01.641.21.92.153l1.567-.324c.574-.119 1.09-.656 1.146-1.195z" fill="#F9B902"/></svg>