<svg width="50" height="40" fill="none" xmlns="http://www.w3.org/2000/svg"><path d="M45.503 28.572H30.855a7.378 7.378 0 00-5.86 2.863 7.378 7.378 0 00-5.86-2.863H4.488c-.808 0-1.465.64-1.465 1.429v1.429h12.285c3.427 0 6.836.662 9.688 2.516 2.851-1.854 6.26-2.516 9.689-2.516h12.284V30c0-.788-.657-1.428-1.465-1.428zM22.25 39.058c-1.623-1.27-3.958-1.914-6.939-1.914H1.465c-.81 0-1.465-.64-1.465-1.429s.656-1.429 1.465-1.429H15.31c3.665 0 6.617.856 8.773 2.544a1.492 1.492 0 001.832 0c2.156-1.688 5.108-2.544 8.773-2.544h13.846c.81 0 1.465.64 1.465 1.429s-.656 1.428-1.465 1.428H34.69c-2.981 0-5.316.645-6.94 1.915a4.484 4.484 0 01-5.498 0zm13.001-24.601v4.115c0 .54-.313 1.036-.81 1.278l-6.478 3.158a8.023 8.023 0 00-1.953 1.341 1.494 1.494 0 01-2.026 0 8.023 8.023 0 00-1.953-1.34l-6.478-3.16a1.426 1.426 0 01-.81-1.277v-4.114l9.047 2.52a4.504 4.504 0 002.414 0l9.047-2.52zm5.865-1.632v8.604c0 .789-.656 1.429-1.465 1.429-.808 0-1.465-.64-1.465-1.429v-7.788l2.93-.816zM24.6 14.231L4.092 8.517c-1.41-.393-1.413-2.354 0-2.748L24.6.055a1.5 1.5 0 01.805 0l20.508 5.714c1.41.393 1.413 2.354 0 2.748L25.405 14.23c-.262.073-.54.074-.805 0z" fill="#5A5A5A"/></svg>