<svg width="50" height="40" fill="none" xmlns="http://www.w3.org/2000/svg"><path d="M31.483.633c-5.563-1.678-10.164.39-12.047 1.475C17.552 1.022 12.952-1.045 7.39.633 4.366 1.546 1.955 3.917.78 7.136c-1.54 4.211-.767 9.066 2.068 12.987 1.845 2.552 3.05 5.43 3.484 8.325.024.168.05.34.073.515.965 7.046 2.905 10.754 5.766 11.024 1.7.16 3.096-1.127 4.146-3.824.712-1.827 1.271-4.27 1.578-6.884.21-1.784.717-2.775 1.107-3.29a.537.537 0 01.435-.212c.103 0 .297.028.435.211.39.516.898 1.507 1.108 3.291.305 2.613.866 5.057 1.577 6.884.991 2.548 2.291 3.837 3.867 3.837.092 0 .186-.005.28-.013 2.86-.27 4.8-3.979 5.764-11.024.024-.17.047-.334.072-.496.09-.61.216-1.22.374-1.824a12.388 12.388 0 01-1.96.15c-.361 0-.72-.014-1.075-.044-2.756-.232-5.32-1.35-7.307-3.206-2.258-2.107-3.509-4.917-3.522-7.91-.013-2.993 1.212-5.812 3.451-7.938 2.252-2.138 5.255-3.316 8.454-3.316a12.635 12.635 0 014.516.832h.001c.82.317 1.603.72 2.333 1.207-1.256-2.852-3.526-4.94-6.32-5.785zm10.206 19.813c-.219.43-.468.845-.748 1.247a11.436 11.436 0 01-2.231 2.398 11.884 11.884 0 01-2.502 1.558l8.31 7.759L50 28.205l-8.311-7.76z" fill="#5A5A5A"/><path d="M38.87 11.616a8.495 8.495 0 00-1.601-2.025l-.043-.04a8.866 8.866 0 00-1.834-1.302v-.001a9.023 9.023 0 00-.88-.414 8.456 8.456 0 00-.813-.287l-.129-.038c-.064-.018-.129-.037-.194-.053a7.009 7.009 0 00-.588-.135l-.13-.025a8.45 8.45 0 00-.425-.067 9.61 9.61 0 00-1.28-.086c-2.019 0-4.039.638-5.687 1.913a8.794 8.794 0 00-.682.585c-3.488 3.311-3.465 8.656.053 11.94a8.952 8.952 0 001.97 1.394h.002a8.837 8.837 0 001.004.45 9.144 9.144 0 001.198.361 9.404 9.404 0 002.141.243h.082l.083-.001a5.749 5.749 0 00.338-.012 9.382 9.382 0 00.489-.038l.161-.018.163-.02c.136-.02.27-.042.407-.067l.16-.03c.212-.043.423-.093.632-.15a8.93 8.93 0 00.467-.142h.001l.016-.005.087-.03v-.001a9.105 9.105 0 003.282-1.983 8.357 8.357 0 002.112-3.19 8.018 8.018 0 00-.561-6.726z" fill="#5A5A5A"/></svg>