<svg width="150" height="150" viewBox="0 0 150 150" fill="none" xmlns="http://www.w3.org/2000/svg">
  <path d="M62.2857 88.8248L48 92L51.1752 77.7143C49.0842 73.803 47.9934 69.4351 48 65C48 50.0879 60.0879 38 75 38C89.9121 38 102 50.0879 102 65C102 79.9121 89.9121 92 75 92C70.5649 92.0066 66.197 90.9158 62.2857 88.8248ZM63.0687 83.1197L64.8318 84.0647C67.9599 85.7364 71.4533 86.6074 75 86.6C79.2721 86.6 83.4482 85.3332 87.0003 82.9597C90.5524 80.5863 93.321 77.2128 94.9558 73.2659C96.5907 69.3191 97.0184 64.976 96.185 60.786C95.3515 56.5961 93.2943 52.7473 90.2735 49.7265C87.2527 46.7057 83.404 44.6485 79.214 43.815C75.024 42.9816 70.6809 43.4093 66.7341 45.0442C62.7872 46.6791 59.4137 49.4476 57.0403 52.9997C54.6668 56.5518 53.4 60.7279 53.4 65C53.4 68.6018 54.2775 72.0686 55.938 75.1682L56.8803 76.9313L55.1118 84.8882L63.0687 83.1197Z" fill="#F8B500"/>
  <path d="M67.125 64.4375C67.125 65.9908 65.8658 67.25 64.3125 67.25C62.7592 67.25 61.5 65.9908 61.5 64.4375C61.5 62.8842 62.7592 61.625 64.3125 61.625C65.8658 61.625 67.125 62.8842 67.125 64.4375Z" fill="#F8B500"/>
  <path d="M75 64.4375C75 65.9908 73.7408 67.25 72.1875 67.25C70.6342 67.25 69.375 65.9908 69.375 64.4375C69.375 62.8842 70.6342 61.625 72.1875 61.625C73.7408 61.625 75 62.8842 75 64.4375Z" fill="#F8B500"/>
  <path d="M82.875 64.4375C82.875 65.9908 81.6158 67.25 80.0625 67.25C78.5092 67.25 77.25 65.9908 77.25 64.4375C77.25 62.8842 78.5092 61.625 80.0625 61.625C81.6158 61.625 82.875 62.8842 82.875 64.4375Z" fill="#F8B500"/>
  <g filter="url(#filter1_f)">
    <path d="M75 97C92.6731 97 107 82.6731 107 65C107 47.3269 92.6731 33 75 33C57.3269 33 43 47.3269 43 65C43 82.6731 57.3269 97 75 97Z" stroke="#F8B500" stroke-width="2"/>
  </g>
  <g filter="url(#filter2_f)">
    <path d="M74.5 104.5C96.5914 104.5 114.5 86.5914 114.5 64.5C114.5 42.4086 96.5914 24.5 74.5 24.5C52.4086 24.5 34.5 42.4086 34.5 64.5C34.5 86.5914 52.4086 104.5 74.5 104.5Z" stroke="#F9D069"/>
  </g>
  <filter id="filter1_f" x="38" y="28" width="74" height="74" filterUnits="userSpaceOnUse" color-interpolation-filters="sRGB">
    <feFlood flood-opacity="0" result="BackgroundImageFix"/>
    <feBlend mode="normal" in="SourceGraphic" in2="BackgroundImageFix" result="shape"/>
    <feGaussianBlur stdDeviation="2" result="effect1_foregroundBlur"/>
  </filter>
  <filter id="filter2_f" x="30" y="20" width="89" height="89" filterUnits="userSpaceOnUse" color-interpolation-filters="sRGB">
    <feFlood flood-opacity="0" result="BackgroundImageFix"/>
    <feBlend mode="normal" in="SourceGraphic" in2="BackgroundImageFix" result="shape"/>
    <feGaussianBlur stdDeviation="2" result="effect1_foregroundBlur"/>
  </filter>
</svg>
