<svg width="23" height="21" viewBox="0 0 23 21" fill="none" xmlns="http://www.w3.org/2000/svg">
<path d="M16.6034 18.1695L16.6278 17.9391C16.6825 17.3996 16.3361 16.6233 15.8572 16.2135L14.0865 14.6933C13.606 14.2816 12.7404 14.0346 12.1664 14.1534L11.1193 14.3701C8.78691 12.3772 7.62149 9.56166 8.06682 6.99482L9.11393 6.77806C9.68795 6.65923 10.228 6.12193 10.3187 5.59198L10.6522 3.63628C10.7424 3.10715 10.4411 2.32075 9.98391 1.88944L9.78813 1.70394C9.32988 1.27208 8.48566 1.01619 7.91168 1.13501L6.34498 1.46006C6.06562 1.51714 5.6987 1.90926 5.69782 1.91093C4.14448 4.75149 4.04032 8.22575 5.41416 11.5448C6.78464 14.8556 9.51 17.7335 12.9702 19.5354C12.9882 19.545 13.6114 19.7454 13.8908 19.6883L15.457 19.3641C16.031 19.2453 16.5468 18.7079 16.6034 18.1695Z" fill="#F9B902"/>
</svg>
