<svg width="15" height="17" viewBox="0 0 15 17" fill="none" xmlns="http://www.w3.org/2000/svg">
<path d="M6.32924 1.2697C6.589 0.272463 8.00489 0.272463 8.26465 1.2697L9.18942 4.81984C9.30416 5.26034 9.70192 5.56777 10.1571 5.56777H13.5463C14.4611 5.56777 14.8957 6.69444 14.2178 7.30875L11.1232 10.1133C10.8472 10.3634 10.7331 10.746 10.827 11.1064L11.9164 15.2886C12.1669 16.2502 11.0135 16.949 10.2772 16.2817L7.96847 14.1894C7.58739 13.8441 7.0065 13.8441 6.62542 14.1894L4.31673 16.2817C3.58042 16.949 2.42702 16.2502 2.6775 15.2886L3.76692 11.1064C3.86079 10.746 3.74666 10.3634 3.47074 10.1133L0.37609 7.30875C-0.301756 6.69445 0.13282 5.56777 1.04761 5.56777H4.43677C4.89197 5.56777 5.28973 5.26034 5.40448 4.81984L6.32924 1.2697Z" fill="#F9B902"/>
</svg>
